<?xml version="1.0" standalone="no"?>
<!DOCTYPE svg PUBLIC "-//W3C//DTD SVG 20010904//EN"
 "http://www.w3.org/TR/2001/REC-SVG-20010904/DTD/svg10.dtd">
<svg version="1.0" xmlns="http://www.w3.org/2000/svg"
 width="2048.000000pt" height="2048.000000pt" viewBox="0 0 2048.000000 2048.000000"
 preserveAspectRatio="xMidYMid meet">

<g transform="translate(0.000000,2048.000000) scale(0.100000,-0.100000)"
fill="#000000" stroke="none">
<path d="M0 10240 l0 -10240 10240 0 10240 0 0 10240 0 10240 -10240 0 -10240
0 0 -10240z m15515 9421 c570 -69 1052 -214 1570 -471 589 -292 1099 -702
1556 -1250 232 -279 491 -703 642 -1050 218 -504 323 -897 384 -1430 25 -218
25 -770 0 -990 -58 -513 -163 -913 -364 -1385 -112 -263 -214 -452 -388 -715
-136 -207 -225 -324 -391 -515 -62 -71 -1137 -1154 -2388 -2405 l-2276 -2275
-3342 3343 -3343 3342 2280 2281 c1254 1254 2339 2331 2410 2393 443 384 904
658 1460 867 410 155 806 239 1335 283 25 2 189 2 365 1 248 -2 358 -8 490
-24z m-5551 -9700 l3339 -3339 -2274 -2274 c-1251 -1250 -2326 -2318 -2389
-2373 -533 -462 -1038 -749 -1700 -963 -800 -259 -1713 -290 -2548 -86 -521
127 -1008 342 -1496 659 -513 333 -1046 880 -1378 1415 -218 350 -346 622
-485 1025 -258 753 -310 1638 -143 2450 94 460 287 972 511 1362 176 306 336
530 573 802 80 92 4633 4660 4646 4661 3 0 1507 -1502 3344 -3339z"/>
</g>
</svg>
